<svg xmlns="http://www.w3.org/2000/svg" viewBox="0 -0.5 20 20" shape-rendering="crispEdges">
<metadata>Made with Pixels to Svg https://codepen.io/shshaw/pen/XbxvNj</metadata>
<path stroke="#880015" d="M5 1h1M14 1h1M4 2h2M14 2h2M4 3h1M15 3h1" />
<path stroke="#c3c3c3" d="M6 2h1M13 2h1M5 3h2M13 3h2M4 4h4M12 4h4M2 5h1M4 5h12M17 5h1M2 6h16M1 7h5M7 7h6M14 7h5M0 8h5M7 8h6M15 8h5M0 9h5M7 9h6M15 9h5M0 10h20M0 11h20M1 12h3M6 12h1M13 12h2M17 12h3M2 13h2M17 13h2" />
<path stroke="#ed1c24" d="M1 3h2M17 3h2" />
<path stroke="#7f7f7f" d="M1 4h2M17 4h2M1 5h1M18 5h1M1 6h1M18 6h1" />
<path stroke="#00a2e8" d="M6 7h1M13 7h1M5 8h2M13 8h2M5 9h2M13 9h2" />
<path stroke="#707070" d="M4 12h2M15 12h2M4 13h2M15 13h2M3 14h3M15 14h3M3 15h3M15 15h3" />
<path stroke="#ff7f27" d="M3 16h1M5 16h1M16 16h1M4 17h1M15 17h2" />
<path stroke="#fff200" d="M4 16h1M15 16h1M17 16h1M5 17h1M3 18h1M16 19h1" />
</svg>